<svg
  version="1.0"
  xmlns="http://www.w3.org/2000/svg"
  viewBox="0 0 860.000000 1060.000000"
  preserveAspectRatio="xMidYMid meet"
>
  <g
    transform="translate(0.000000,1060.000000) scale(0.100000,-0.100000)"
    stroke="none"
  >
    <path
      fill="#FFFFF0"
      d="M852 10191 l-93 -6 303 -345 c814 -930 2916 -3282 3161 -3538 39 -40
75 -71 82 -68 16 6 161 164 688 749 1203 1337 2837 3179 2837 3198 0 13 -284
19 -890 19 l-635 -1 -640 -715 c-689 -771 -1198 -1337 -1303 -1448 l-65 -70
-36 41 c-20 22 -218 242 -441 489 -697 772 -1351 1510 -1460 1646 l-45 57
-685 -1 c-377 -1 -727 -4 -778 -7z"
    />
    <path
      fill="#FFFFF0"
      d="M828 7283 c-32 -2 -58 -7 -58 -11 1 -35 3372 -3816 3517 -3945 20
-17 21 -17 59 26 22 24 163 180 314 348 775 855 2703 3024 3080 3464 l94 110
-64 6 c-36 4 -380 7 -765 7 l-700 1 -335 -376 c-1014 -1138 -1657 -1846 -1674
-1840 -32 10 -1531 1674 -1860 2065 l-129 152 -711 -2 c-391 -1 -737 -3 -768
-5z"
    />
    <path
      fill="#FFFFF0"
      d="M870 4363 c-41 -2 -79 -8 -84 -13 -4 -4 101 -133 240 -292 897 -1024
3117 -3505 3243 -3622 l31 -30 36 35 c54 50 486 526 919 1009 786 879 2568
2887 2573 2901 2 5 -127 9 -306 9 -170 0 -511 3 -758 6 l-449 6 -290 -328
c-341 -385 -793 -890 -1235 -1379 -423 -468 -480 -529 -490 -533 -25 -9 -1715
1888 -1907 2141 l-74 97 -687 -2 c-378 -1 -721 -4 -762 -5z"
    />
  </g>
</svg>
