















<svg xmlns="http://www.w3.org/2000/svg" version="1.1" xmlns:xlink="http://www.w3.org/1999/xlink" xmlns:svgjs="http://svgjs.dev/svgjs" width="1000" height="1000" viewBox="0 0 1000 1000"><rect width="1000" height="1000" fill="none"></rect><g transform="matrix(0.7,0,0,0.7,150.0000000000001,106.25)"><svg viewBox="0 0 320 360" data-background-color="#ffffff" preserveAspectRatio="xMidYMid meet" height="1125" width="1000" xmlns="http://www.w3.org/2000/svg" xmlns:xlink="http://www.w3.org/1999/xlink"><g id="tight-bounds" transform="matrix(1,0,0,1,0,0)"><svg viewBox="0 0 320 360" height="360" width="320"><g><svg></svg></g><g><svg viewBox="0 0 320 360" height="360" width="320"><g><path xmlns="http://www.w3.org/2000/svg" d="M20.961 227.22l3.726 4.658-1.863-6.056c-0.466-2.795-3.726 0.466-1.863 1.398M25.153 224.425c1.397 2.329 2.795 4.658 2.795 6.987 0 3.261 2.795 4.658 5.123 5.589-3.261-3.726-5.124-13.974-7.918-12.576M204.017 26.929c7.918 0 15.371-0.932 23.756 0.931 20.495 5.124 37.729 15.371 49.374 29.811l32.606 52.169c1.397 13.042 4.192 27.482 3.726 43.319 3.261 0 2.795-4.658 6.521-5.59-3.726 9.316-5.59 20.961-6.521 34.469-2.329-7.453 0-18.632 0.466-24.687-3.261 5.124-5.124 1.397-5.124-0.932 0.466-3.726-1.397-3.261-2.795-4.658-5.124-4.658-8.384-9.782-12.11-17.7 2.329-6.055 2.795-14.905-4.658-19.563-2.329-1.397-5.124-3.726-6.521-7.453-1.863-5.124-5.124-11.179-4.193-19.097 0.466-2.329-6.987 5.124-11.179 1.863-18.166-12.576-36.332-27.016-58.224-39.127-11.645 0-20.029-4.192-24.221-9.316-3.726-4.658-0.932-10.713 4.658-11.179 3.261 0 6.987-0.932 9.782 0.932 0.466-1.863 2.329-4.192 4.657-4.192M157.904 16.215l0.932 0.466c4.658 0.932 6.987 7.453 12.11 5.124 0 3.261 0.466 6.521-0.466 8.85-1.397 3.726-5.59 3.726-8.85 3.726-31.208-1.863-49.374 11.179-68.471 22.358-5.124 3.261-10.713 5.59-14.906 9.782-20.029 18.632-41.921 35.866-47.045 70.335l-4.192 38.195c-0.466 4.192-5.124 8.384-4.192 13.508l3.26 22.824c-3.261-3.261-5.124 0.932-4.192 2.795 0.466 1.397 2.329 6.055 5.124 1.863 3.726 6.987 7.453 20.495 12.576 26.55 15.837 18.632 36.332 35.4 53.101 52.169 4.192-0.932 7.453-0.932 8.384-3.727 1.397 2.795-1.397 5.59-3.726 6.056 7.453 4.658 15.837 8.85 27.016 9.781 14.44 0.932 27.948 3.261 40.524 6.522 6.521-1.863 13.042-2.795 20.029-3.261 2.329 0 3.726-3.726 6.521-4.658l0.466-4.658c2.795 4.192 2.329-1.397 0.466-4.192 3.261 2.795 4.192 5.124 5.589 6.987 0-1.397 3.726-6.521 3.727-0.466l0.931-6.055c1.397-0.932 1.863 5.124 3.261 0.931 1.397-4.192 4.192-0.932 6.987-2.329-0.932 1.863-0.466 5.59 2.794 3.261l3.727-3.261c2.329 5.59 6.055 3.261 7.918 2.329 20.495-13.042 40.99-28.413 60.553-43.784l-0.466 6.055 2.329-7.453c2.329 2.329 4.192 0.466 5.124-0.931 2.795-4.658 6.521-9.316 12.577-13.508-7.453 20.029-16.303 35.866-27.482 48.908l-4.658 5.59c0 3.261-0.932 7.453-4.658 7.918-1.863 0.466-5.59-0.932-8.384 1.863-1.397 1.863 3.261 5.59-0.466 2.795-3.261-2.329-6.521 0-10.248 0.932-2.795 0.932 1.863 3.726 2.795 5.589 0.932 1.863 1.863 3.726 1.398 6.056l-5.124-5.59c-6.055 3.261-9.782 9.316-14.906 13.974-2.329 1.863-1.397 5.124-1.397 7.918-3.261 0-6.987-0.932-8.85 0.932-1.397 1.863-0.932 4.658-0.932 7.453-4.658-0.466-5.124-7.453-9.315-6.056-4.192 0.932-8.85 1.397-12.577 3.727 2.795 5.59-4.658 2.329-3.726 3.26-6.987-4.192-13.042-7.453-20.495-4.658-15.837-5.124-35.4-2.795-49.84-0.931 0-2.329 0.466-4.658-0.466-5.124-0.932 2.329-3.726 1.397-3.26 1.397-8.85-6.055-17.7-9.782-27.016-14.905-8.384 0.932-16.303-3.261-18.632-5.59-6.521-6.055-13.974-2.795-20.029-4.192-13.042-3.261-17.7-16.769-19.098-26.084-0.932-4.658-4.658-6.521-6.055-6.056-6.055-19.563-15.371-37.263-22.824-55.429-1.863-4.658-1.397-9.316-1.397-14.44 2.329 0.932 4.658 0.466 4.192-2.794-2.329-15.371-7.918-27.016-13.974-38.195 3.261-15.837 3.726-34.469 11.179-48.443 6.521-12.576 18.632-19.098 27.016-29.811 2.795-3.726 2.795-8.85 5.59-12.11 9.316-9.316 18.632-19.098 28.879-27.482 4.658-3.726 10.247 0 17.234-1.397 2.329-8.384 11.645-15.837 20.495-13.508 3.726 0.932 11.179-8.85 13.508-9.782 3.726-1.397 1.863 3.726 1.863 6.987 8.85-6.987 20.961-10.713 32.14-14.906" fill="#ffffff" fill-rule="nonzero" stroke="none" stroke-width="1" stroke-linecap="butt" stroke-linejoin="miter" stroke-miterlimit="10" stroke-dasharray="" stroke-dashoffset="0" font-family="none" font-weight="none" font-size="none" text-anchor="none" style="mix-blend-mode: normal" data-fill-palette-color="tertiary"></path></g><g transform="matrix(1,0,0,1,65.07592087070682,90)"><svg viewBox="0 0 189.84815825858635 180" height="180" width="189.84815825858635"><g><svg viewBox="0 0 189.84815825858635 180" height="180" width="189.84815825858635"><g><svg viewBox="0 0 192 182.04021738744962" height="180" width="189.84815825858635"><g><svg viewBox="0 0 192 182.04021738744962" height="182.04021738744962" width="192"><g id="textblocktransform"><svg viewBox="0 0 192 182.04021738744962" height="182.04021738744962" width="192" id="textblock"><g><svg viewBox="0 0 192 119.57894736842103" height="119.57894736842103" width="192"><g transform="matrix(1,0,0,1,0,0)"><svg width="192" viewBox="-0.05000000447034836 -35 57 35.5" height="119.57894736842103" data-palette-color="#111111"><path d="M20.15-35L25.2-35 14.9-15.15 14.9 0 10.35 0 10.35-15.15-0.05-35 5-35 12.6-19.95 20.15-35ZM28.75-30.05L28.75-35 33.1-35 33.1-30.05 28.75-30.05ZM28.75 0L28.75-24.5 33.1-24.5 33.1 0 28.75 0ZM49 0.5Q45.3 0.5 42.67-1.23 40.05-2.95 38.72-5.9 37.4-8.85 37.4-12.45L37.4-12.45Q37.4-15.9 38.62-18.78 39.84-21.65 42.17-23.33 44.5-25 47.7-25L47.7-25Q51.8-25 54.37-22.25 56.95-19.5 56.95-14.65L56.95-14.65Q56.95-13.8 56.75-12.3L56.75-12.3 41.84-12.3Q42-7.95 44.02-5.7 46.05-3.45 49.3-3.45L49.3-3.45Q50.84-3.45 52.57-3.83 54.3-4.2 55.59-4.9L55.59-4.9 56-1Q53.25 0.5 49 0.5L49 0.5ZM42.05-15.35L52.5-15.35Q52.5-17.85 51.27-19.43 50.05-21 47.75-21L47.75-21Q45.5-21 44.02-19.6 42.55-18.2 42.05-15.35L42.05-15.35Z" opacity="1" transform="matrix(1,0,0,1,0,0)" fill="#ffffff" class="wordmark-text-0" data-fill-palette-color="primary" id="text-0"></path></svg></g></svg></g><g transform="matrix(1,0,0,1,0,147.80866694736838)"><svg viewBox="0 0 192 34.23155044008124" height="34.23155044008124" width="192"><g transform="matrix(1,0,0,1,0,0)"><svg width="192" viewBox="4.75 -29.5 221.52999877929688 39.5" height="34.23155044008124" data-palette-color="#111111"><path d="M19.95-12.4L17.15-10.8 16.4-12.1 19.2-13.7Q22.65-15.6 22.65-19.75L22.65-19.75Q22.65-27.5 10.85-27.5L10.85-27.5 6.25-27.5 6.25 10 4.75 10 4.75-29 10.85-29Q17.45-29 20.8-26.58 24.15-24.15 24.15-19.75L24.15-19.75Q24.15-14.75 19.95-12.4L19.95-12.4ZM45.8-27.48Q44.1-28 41.6-28 39.1-28 37.4-27.48 35.7-26.95 34.27-25.53 32.85-24.1 32.15-21.38 31.45-18.65 31.45-14.5 31.45-10.35 32.15-7.63 32.85-4.9 34.27-3.48 35.7-2.05 37.4-1.53 39.1-1 41.6-1 44.1-1 45.8-1.53 47.5-2.05 48.92-3.48 50.35-4.9 51.05-7.63 51.75-10.35 51.75-14.5 51.75-18.65 51.05-21.38 50.35-24.1 48.92-25.53 47.5-26.95 45.8-27.48ZM50.55-3.05Q47.85 0.5 41.6 0.5 35.35 0.5 32.65-3.05 29.95-6.6 29.95-14.5 29.95-22.4 32.65-25.95 35.35-29.5 41.6-29.5 47.85-29.5 50.55-25.95 53.25-22.4 53.25-14.5 53.25-6.6 50.55-3.05ZM73.7-14.55L73.7-14.55 80.5 0 78.84 0 71.84-15Q71.95-15.05 72.72-15.43 73.5-15.8 73.8-15.98 74.09-16.15 74.8-16.6 75.5-17.05 75.84-17.48 76.2-17.9 76.62-18.48 77.05-19.05 77.25-19.78 77.45-20.5 77.45-21.35L77.45-21.35Q77.45-24.5 74.45-26 71.45-27.5 67-27.5L67-27.5 63-27.5 63 0 61.5 0 61.5-29 67-29Q72.9-29 75.92-26.95 78.95-24.9 78.95-21.35L78.95-21.35Q78.95-19.05 77.4-17.28 75.84-15.5 73.7-14.55ZM83.54-29L106.04-29 106.04-27.5 95.54-27.5 95.54 0 94.04 0 94.04-27.5 83.54-27.5 83.54-29ZM112.79 0L111.29 0 111.29-14.5Q111.29-22.4 114.02-25.95 116.74-29.5 122.94-29.5L122.94-29.5Q130.19-29.5 132.79-24.75L132.79-24.75 122.34-16 132.99-16 132.99-14.5 118.19-14.5 130.84-25.05Q128.64-28 122.94-28L122.94-28Q120.44-28 118.74-27.48 117.04-26.95 115.62-25.53 114.19-24.1 113.49-21.38 112.79-18.65 112.79-14.5L112.79-14.5 112.79 0ZM155.09-27.48Q153.39-28 150.89-28 148.39-28 146.69-27.48 144.99-26.95 143.56-25.53 142.14-24.1 141.44-21.38 140.74-18.65 140.74-14.5 140.74-10.35 141.44-7.63 142.14-4.9 143.56-3.48 144.99-2.05 146.69-1.53 148.39-1 150.89-1 153.39-1 155.09-1.53 156.79-2.05 158.21-3.48 159.64-4.9 160.34-7.63 161.04-10.35 161.04-14.5 161.04-18.65 160.34-21.38 159.64-24.1 158.21-25.53 156.79-26.95 155.09-27.48ZM159.84-3.05Q157.14 0.5 150.89 0.5 144.64 0.5 141.94-3.05 139.24-6.6 139.24-14.5 139.24-22.4 141.94-25.95 144.64-29.5 150.89-29.5 157.14-29.5 159.84-25.95 162.54-22.4 162.54-14.5 162.54-6.6 159.84-3.05ZM172.29-1.5L187.49-1.5 187.49 0 170.79 0 170.79-29 172.29-29 172.29-1.5ZM193.23 0L193.23-29 194.73-29 194.73 0 193.23 0ZM218.83-27.48Q217.13-28 214.63-28 212.13-28 210.43-27.48 208.73-26.95 207.31-25.53 205.88-24.1 205.18-21.38 204.48-18.65 204.48-14.5 204.48-10.35 205.18-7.63 205.88-4.9 207.31-3.48 208.73-2.05 210.43-1.53 212.13-1 214.63-1 217.13-1 218.83-1.53 220.53-2.05 221.96-3.48 223.38-4.9 224.08-7.63 224.78-10.35 224.78-14.5 224.78-18.65 224.08-21.38 223.38-24.1 221.96-25.53 220.53-26.95 218.83-27.48ZM223.58-3.05Q220.88 0.5 214.63 0.5 208.38 0.5 205.68-3.05 202.98-6.6 202.98-14.5 202.98-22.4 205.68-25.95 208.38-29.5 214.63-29.5 220.88-29.5 223.58-25.95 226.28-22.4 226.28-14.5 226.28-6.6 223.58-3.05Z" opacity="1" transform="matrix(1,0,0,1,0,0)" fill="#ffffff" class="slogan-text-1" data-fill-palette-color="secondary" id="text-1"></path></svg></g></svg></g></svg></g></svg></g></svg></g></svg></g></svg></g></svg></g><defs></defs></svg><rect width="320" height="360" fill="none" stroke="none" visibility="hidden"></rect></g></svg></g></svg>