<svg width="145" height="243" viewBox="0 0 145 243" fill="none" xmlns="http://www.w3.org/2000/svg">
<g clip-path="url(#clip0_29_2)">
<path d="M63.04 110.384C63.04 110.64 63.2747 110.768 63.744 110.768C64.2133 110.768 64.704 110.448 65.216 109.808C65.7707 109.125 66.176 108.293 66.432 107.312C65.4933 107.781 64.6827 108.336 64 108.976C63.36 109.573 63.04 110.043 63.04 110.384ZM102.272 97.968C99.6693 97.968 96.9387 98.992 94.08 101.04C94.4213 101.083 95.1253 101.104 96.192 101.104C97.2587 101.104 98.7093 100.869 100.544 100.4C102.379 99.9307 103.296 99.4187 103.296 98.864C103.296 98.2667 102.955 97.968 102.272 97.968ZM40.576 134.256C41.3013 134.256 41.8987 133.872 42.368 133.104C42.8373 132.336 43.072 131.504 43.072 130.608C43.072 129.712 42.9013 128.88 42.56 128.112C40.0427 129.947 38.784 131.568 38.784 132.976C38.784 133.829 39.3813 134.256 40.576 134.256ZM61.632 111.344C61.632 110.619 62.1013 109.744 63.04 108.72C63.9787 107.696 65.1733 106.885 66.624 106.288C66.6667 106.075 66.688 105.733 66.688 105.264C66.688 103.813 66.3253 102.512 65.6 101.36C62.3147 102.469 59.6693 104.24 57.664 106.672C55.7013 109.061 54.72 111.365 54.72 113.584C54.72 115.077 55.1893 116.272 56.128 117.168C57.1093 118.064 58.56 118.512 60.48 118.512C63.0827 118.512 65.7067 117.232 68.352 114.672C71.04 112.112 72.384 109.893 72.384 108.016C72.384 106.864 71.7013 106.288 70.336 106.288C69.696 106.288 68.8853 106.437 67.904 106.736C67.5627 108.272 66.9013 109.595 65.92 110.704C64.9813 111.771 64.0213 112.304 63.04 112.304C62.1013 112.304 61.632 111.984 61.632 111.344ZM54.08 124.4C50.2827 124.443 46.8693 125.403 43.84 127.28C44.1387 127.92 44.288 128.859 44.288 130.096C44.288 131.291 43.8187 132.549 42.88 133.872C41.984 135.152 40.9173 135.792 39.68 135.792C37.9733 135.792 37.12 135.131 37.12 133.808C37.12 132.869 37.5467 131.803 38.4 130.608C39.296 129.413 40.512 128.283 42.048 127.216C41.28 126.149 40.064 125.616 38.4 125.616C35.072 125.616 32.3413 126.64 30.208 128.688C28.0747 130.693 27.008 132.933 27.008 135.408C27.008 137.883 28.032 139.952 30.08 141.616C32.1707 143.237 35.008 144.048 38.592 144.048C42.2187 144.048 45.5253 143.493 48.512 142.384C51.5413 141.275 54.336 139.76 56.896 137.84C59.456 135.877 61.9307 133.701 64.32 131.312C66.7093 128.923 69.0347 126.341 71.296 123.568C73.6 120.795 75.776 118.149 77.824 115.632C82.816 109.445 87.168 104.88 90.88 101.936C89.8987 101.851 88.1493 101.637 85.632 101.296C80.2987 100.571 76.3093 100.208 73.664 100.208C71.0613 100.208 68.8853 100.443 67.136 100.912C67.8187 102.021 68.16 103.067 68.16 104.048C68.16 104.987 68.1387 105.563 68.096 105.776C69.2053 105.477 70.208 105.328 71.104 105.328C73.152 105.328 74.176 106.117 74.176 107.696C74.176 109.872 72.576 112.411 69.376 115.312C66.2187 118.171 63.0613 119.6 59.904 119.6C57.5573 119.6 55.7867 119.109 54.592 118.128C53.44 117.147 52.864 115.845 52.864 114.224C52.864 111.877 53.9947 109.403 56.256 106.8C58.5173 104.155 61.4613 102.107 65.088 100.656C63.3387 98.608 60.544 97.584 56.704 97.584C53.8027 97.584 51.0933 98.0107 48.576 98.864C46.1013 99.7173 44.1387 100.741 42.688 101.936C39.5733 104.496 37.568 106.757 36.672 108.72L36.032 110C35.8187 110.341 35.584 110.512 35.328 110.512C35.072 110.512 34.944 110.277 34.944 109.808C35.4133 108.528 36.288 107.077 37.568 105.456C38.848 103.792 40.2347 102.384 41.728 101.232C43.264 100.08 45.3973 99.0347 48.128 98.096C50.8587 97.1147 53.8667 96.624 57.152 96.624C61.632 96.624 64.7893 97.7973 66.624 100.144C69.312 99.248 71.7653 98.8 73.984 98.8C76.2027 98.8 78.208 98.8853 80 99.056C81.8347 99.184 83.328 99.3333 84.48 99.504C85.632 99.6747 87.104 99.9093 88.896 100.208C90.688 100.507 91.8613 100.699 92.416 100.784C96.0853 98.224 99.6907 96.944 103.232 96.944C104.811 96.944 105.6 97.4133 105.6 98.352C105.6 99.5893 104.277 100.528 101.632 101.168C98.9867 101.808 96.9387 102.128 95.488 102.128C94.0373 102.128 93.0773 102.107 92.608 102.064C89.4933 104.496 85.2693 109.019 79.936 115.632C77.888 118.192 75.6693 120.901 73.28 123.76C70.8907 126.619 68.416 129.307 65.856 131.824C63.296 134.299 60.6293 136.539 57.856 138.544C51.8827 142.939 45.4613 145.136 38.592 145.136C34.1547 145.136 30.8053 144.261 28.544 142.512C26.2827 140.763 25.152 138.523 25.152 135.792C25.152 133.019 26.432 130.459 28.992 128.112C31.5947 125.765 34.88 124.592 38.848 124.592C40.8107 124.592 42.2827 125.189 43.264 126.384C46.6773 124.379 50.4533 123.376 54.592 123.376C55.616 123.376 56.4907 123.568 57.216 123.952C57.9413 124.293 58.3893 124.635 58.56 124.976L58.88 125.488C58.88 125.915 58.688 126.128 58.304 126.128C58.1333 126.128 57.92 125.979 57.664 125.68C57.024 124.827 55.8293 124.4 54.08 124.4ZM66.2115 139.504C66.2115 138.224 66.7235 137.179 67.7475 136.368C68.7715 135.557 69.8808 135.152 71.0755 135.152C72.3128 135.152 72.9315 135.685 72.9315 136.752C72.9315 137.221 72.7608 137.691 72.4195 138.16C72.1208 138.629 71.7795 138.864 71.3955 138.864C71.0542 138.864 70.8835 138.736 70.8835 138.48C70.8835 138.181 71.0115 137.904 71.2675 137.648C71.5662 137.392 71.7155 137.136 71.7155 136.88C71.7155 136.155 71.3742 135.792 70.6915 135.792C70.0088 135.792 69.3475 136.112 68.7075 136.752C68.1102 137.349 67.8115 138.075 67.8115 138.928C67.8115 139.739 68.0248 140.421 68.4515 140.976C68.8782 141.531 69.5395 141.808 70.4355 141.808C71.3742 141.808 72.1635 141.424 72.8035 140.656C73.4862 139.845 73.9982 138.885 74.3395 137.776C74.6808 136.624 75.0435 135.472 75.4275 134.32C75.8542 133.168 76.4728 132.208 77.2835 131.44C78.1368 130.629 79.0542 130.224 80.0355 130.224C81.0168 130.224 81.7848 130.395 82.3395 130.736C82.8942 131.035 83.1715 131.44 83.1715 131.952C83.1715 132.464 82.9582 132.955 82.5315 133.424C82.1475 133.893 81.7208 134.128 81.2515 134.128C80.7822 134.128 80.5262 134.021 80.4835 133.808C80.4835 133.467 80.7182 133.168 81.1875 132.912C81.4435 132.827 81.5715 132.528 81.5715 132.016C81.5715 131.333 81.1022 130.992 80.1635 130.992C79.2248 130.992 78.4355 131.611 77.7955 132.848C77.1555 134.043 76.6648 135.365 76.3235 136.816C76.0248 138.224 75.3422 139.547 74.2755 140.784C73.2088 141.979 71.7795 142.576 69.9875 142.576C68.8782 142.576 68.0035 142.32 67.3635 141.808C66.7235 141.296 66.3822 140.784 66.3395 140.272L66.2115 139.504ZM91.0585 125.616C93.4478 122.672 95.8798 119.728 98.3545 116.784C100.829 113.797 102.131 112.219 102.259 112.048C102.429 111.877 102.728 111.792 103.155 111.792C103.624 111.792 103.859 111.92 103.859 112.176V112.368C103.859 112.624 103.752 112.816 103.539 112.944C101.661 114.736 97.7572 119.301 91.8265 126.64C85.8958 133.979 82.9305 138.181 82.9305 139.248C82.9305 140.272 83.4425 140.784 84.4665 140.784C84.8078 140.784 85.3625 140.677 86.1305 140.464C87.4958 139.909 88.4985 139.333 89.1385 138.736C89.7785 138.096 90.1625 137.776 90.2905 137.776C90.4612 137.776 90.5465 137.904 90.5465 138.16C90.5465 138.416 90.1625 138.885 89.3945 139.568C88.6265 140.208 87.6665 140.784 86.5145 141.296C85.3625 141.808 84.3172 142.064 83.3785 142.064C81.9705 142.064 81.2665 141.403 81.2665 140.08C81.2665 139.269 82.3118 137.392 84.4025 134.448C86.4932 131.461 88.7118 128.517 91.0585 125.616ZM93.248 141.232C94.912 141.232 96.768 140.379 98.816 138.672C100.864 136.923 102.059 135.429 102.4 134.192C102.4 133.68 102.08 133.253 101.44 132.912C100.8 132.528 100.075 132.336 99.264 132.336C97.3013 132.336 95.488 133.189 93.824 134.896C92.2027 136.56 91.392 138.032 91.392 139.312C91.392 140.592 92.0107 141.232 93.248 141.232ZM99.84 131.312C101.333 131.312 102.571 131.845 103.552 132.912C103.595 132.912 103.936 132.592 104.576 131.952C104.875 131.483 105.216 131.248 105.6 131.248C105.984 131.248 106.176 131.44 106.176 131.824L105.92 132.4C105.792 132.613 104.939 133.659 103.36 135.536C101.824 137.413 100.928 138.523 100.672 138.864C100.459 139.205 100.352 139.717 100.352 140.4C100.352 140.869 100.651 141.104 101.248 141.104C102.485 141.104 104.235 140.08 106.496 138.032C106.624 137.861 106.752 137.776 106.88 137.776C107.051 137.776 107.136 137.883 107.136 138.096C107.136 138.608 106.261 139.419 104.512 140.528C102.805 141.637 101.269 142.192 99.904 142.192C98.9653 142.192 98.496 141.701 98.496 140.72C98.496 140.379 98.432 140.208 98.304 140.208C98.2187 140.208 98.1547 140.229 98.112 140.272C95.9787 141.68 93.952 142.384 92.032 142.384C90.1547 142.384 89.216 141.531 89.216 139.824C89.216 138.032 90.2827 136.176 92.416 134.256C94.5493 132.293 97.024 131.312 99.84 131.312ZM121.385 140.784C121.385 141.253 121.684 141.488 122.282 141.488C123.476 141.488 125.354 140.336 127.914 138.032C128.042 137.861 128.17 137.776 128.298 137.776C128.468 137.776 128.554 137.883 128.554 138.096C128.554 138.651 127.615 139.547 125.738 140.784C123.903 141.979 122.303 142.576 120.938 142.576C119.999 142.576 119.53 142.085 119.53 141.104C119.53 140.251 120.34 138.928 121.962 137.136C123.583 135.301 124.394 134.085 124.394 133.488C124.394 132.848 123.839 132.549 122.73 132.592C121.62 132.592 119.658 133.445 116.842 135.152C113.898 139.248 112.34 141.403 112.17 141.616C112.042 141.787 111.807 141.872 111.466 141.872C111.124 141.872 110.954 141.701 110.954 141.36C110.954 141.019 111.146 140.656 111.53 140.272C112.084 139.504 112.618 138.8 113.13 138.16C113.642 137.477 114.047 136.944 114.345 136.56C114.644 136.133 114.922 135.749 115.178 135.408C115.476 135.067 115.69 134.811 115.818 134.64C115.946 134.427 116.052 134.256 116.138 134.128C116.266 134 116.33 133.893 116.33 133.808C116.372 133.68 116.394 133.573 116.394 133.488C116.436 133.403 116.458 133.296 116.458 133.168C116.458 132.699 116.159 132.464 115.562 132.464C115.007 132.464 114.196 132.72 113.13 133.232C112.106 133.744 111.38 134.171 110.954 134.512C110.527 134.811 109.546 135.963 108.01 137.968C106.516 139.931 105.535 141.253 105.066 141.936C104.767 142.277 104.468 142.448 104.169 142.448C103.871 142.448 103.721 142.277 103.721 141.936C103.721 141.595 103.785 141.36 103.913 141.232C104.041 141.061 104.297 140.741 104.681 140.272C105.023 139.803 105.45 139.227 105.962 138.544C106.516 137.819 106.943 137.264 107.242 136.88C107.54 136.496 108.927 134.661 111.402 131.376C111.658 131.035 111.978 130.864 112.362 130.864C112.746 130.864 112.938 131.077 112.938 131.504C112.938 131.931 112.788 132.293 112.49 132.592L112.554 132.656C113.834 131.803 115.071 131.376 116.266 131.376C117.503 131.376 118.122 131.824 118.122 132.72C118.122 133.104 118.036 133.424 117.866 133.68C120.639 132.059 122.73 131.248 124.138 131.248C124.778 131.248 125.268 131.376 125.61 131.632C125.994 131.888 126.25 132.293 126.378 132.848C126.378 133.829 125.546 135.237 123.882 137.072C122.218 138.864 121.385 140.101 121.385 140.784Z" fill="currentColor"/>
<mask id="mask0_29_2" style="mask-type:alpha" maskUnits="userSpaceOnUse" x="-110" y="-38" width="448" height="125">
<rect x="-110" y="-38" width="448" height="125" fill="#D9D9D9"/>
</mask>
<g mask="url(#mask0_29_2)">
<path d="M40.5 226.1C35.9 227.1 30.5 226.8 24.3 225.2C18.1 223.4 13.1 221.1 9.3 218.3C13.9 219.3 19.4 219.1 25.8 217.7C32.2 216.1 37.1 213.7 40.5 210.5C35.9 210.9 30.5 210.3 24.3 208.7C18.1 206.9 13.2 204.5 9.6 201.5C14.2 202.5 19.6 202 25.8 200C32 198 36.9 195.5 40.5 192.5C36.5 189.7 31.1 187.2 24.3 185C17.7 182.6 11.9 182 6.9 183.2C11.9 179.2 18.1 176.3 25.5 174.5C22.1 174.1 18.8 173.5 15.6 172.7C12.2 171.7 9.4 170.4 7.2 168.8C12 169.8 17.7 170 24.3 169.4C31.1 168.8 36.5 167 40.5 164C37.5 164.6 33.8 164.4 29.4 163.4C25.2 162.2 21.9 160.6 19.5 158.6C22.5 159.2 26.1 158.9 30.3 157.7C34.5 156.5 37.9 155 40.5 153.2C39.1 153.4 36.5 153.1 32.7 152.3C28.9 151.5 24.7 150.5 20.1 149.3C15.7 147.9 11.7 146.5 8.1 145.1C4.5 143.7 2.1 142.6 0.899999 141.8C2.3 142 4.9 141.8 8.7 141.2C12.5 140.4 16.6 139.4 21 138.2C25.6 136.8 29.7 135.4 33.3 134C36.9 132.6 39.3 131.4 40.5 130.4C37.7 130.6 34.2 129.8 30 128C26 126 23.2 123.8 21.6 121.4C24.4 121.4 27.8 120.5 31.8 118.7C35.8 116.7 38.7 114.6 40.5 112.4C38.3 110 34.9 107.6 30.3 105.2C25.7 102.8 21.7 101.4 18.3 101C20.3 98.4 23.6 96 28.2 93.8C33 91.4 37.1 90.1 40.5 89.9C38.1 88.1 35 87 31.2 86.6C27.4 86.2 24.1 86.3 21.3 86.9C23.7 85.3 26.8 84.2 30.6 83.6C34.4 82.8 37.7 82.9 40.5 83.9C38.3 81.3 34.8 78.8 30 76.4C25.4 73.8 21.4 72.5 18 72.5C20 69.7 23.4 67.2 28.2 65C33 62.8 37.1 61.5 40.5 61.1C38.5 59.1 35.6 57.4 31.8 56C28.2 54.6 25 54.1 22.2 54.5C24.4 52.7 27.3 51.1 30.9 49.7C34.5 48.3 37.7 47.7 40.5 47.9C38.7 46.1 37 43.6 35.4 40.4C34 37 33.3 34 33.3 31.4C34.7 33.6 36.9 35.7 39.9 37.7C43.1 39.7 46 40.8 48.6 41C50.8 37 52.5 32.1 53.7 26.3C55.1 20.3 55.2 15.1 54 10.7C56.6 14.5 58.5 19.4 59.7 25.4C60.9 31.4 60.8 36.6 59.4 41C62 37 63.8 31.8 64.8 25.4C66 18.8 65.8 13.2 64.2 8.59999C67 12.6 68.8 17.8 69.6 24.2C70.4 30.6 70.2 36.2 69 41C72 38.2 74.6 33.9 76.8 28.1C79 22.3 80 17.3 79.8 13.1C82.2 15.7 84.4 19.3 86.4 23.9C88.6 28.3 90 32.5 90.6 36.5C90.8 33.9 91.4 31.2 92.4 28.4C93.4 25.6 94.6 23.4 96 21.8C95.4 24.6 95.6 28 96.6 32C97.8 35.8 99.4 38.8 101.4 41C104.2 41 107.2 40.2 110.4 38.6C113.8 36.8 116.3 34.8 117.9 32.6C117.3 35.2 115.7 37.9 113.1 40.7C110.7 43.5 108.3 45.5 105.9 46.7C108.5 48.5 111.9 50 116.1 51.2C120.3 52.2 124 52.3 127.2 51.5C124.8 53.7 121.4 55.2 117 56C112.8 56.6 109.1 56.7 105.9 56.3C108.1 58.7 111.5 60.6 116.1 62C120.7 63.4 124.6 63.9 127.8 63.5C125.8 65.1 123.2 66.6 120 68C117 69.4 114 70.3 111 70.7C115.2 70.9 119.6 72 124.2 74C129 76 132.7 78.3 135.3 80.9C130.9 80.7 125.6 81.5 119.4 83.3C113.4 85.1 108.9 87.7 105.9 91.1C108.7 93.1 112.3 94.7 116.7 95.9C121.3 97.1 125.3 97.4 128.7 96.8C125.9 99 122.2 100.8 117.6 102.2C113.2 103.4 109.3 103.6 105.9 102.8C109.5 106.4 114.6 109.3 121.2 111.5C128 113.5 133.9 114.4 138.9 114.2C136.5 116.6 133.3 118.7 129.3 120.5C125.5 122.3 121.5 123.7 117.3 124.7C113.1 125.7 109.5 126 106.5 125.6C109.3 126 112.5 127.4 116.1 129.8C119.9 132 122.5 134.2 123.9 136.4C121.3 136.6 118 137.9 114 140.3C110 142.5 107.3 144.8 105.9 147.2C107.7 149.8 110.9 152.3 115.5 154.7C120.1 156.9 124 158.2 127.2 158.6C125.4 161.2 122.2 163.8 117.6 166.4C113 168.8 109.1 170 105.9 170C109.1 169.8 113 170.7 117.6 172.7C122.2 174.7 125.5 177 127.5 179.6C124.3 179.4 120.4 180.4 115.8 182.6C111.4 184.6 108.1 186.7 105.9 188.9C110.1 187.9 115.1 188.3 120.9 190.1C126.9 191.7 131.7 193.7 135.3 196.1C130.9 195.5 125.8 196 120 197.6C114.2 199 109.5 200.9 105.9 203.3C107.9 205.3 110.7 206.8 114.3 207.8C118.1 208.8 121.3 209.1 123.9 208.7C120.7 211.7 116.4 213.5 111 214.1C115 214.5 119.2 215.5 123.6 217.1C128 218.5 131.6 220.3 134.4 222.5C130.2 221.9 125.2 222.5 119.4 224.3C113.8 226.1 109.3 228.3 105.9 230.9C104.9 232.7 104.4 235.4 104.4 239C104.4 242.4 104.8 245 105.6 246.8C103.6 246.8 101 246 97.8 244.4C94.8 242.6 92.8 240.8 91.8 239C88.8 242.6 86.1 247.6 83.7 254C81.3 260.4 80.4 265.9 81 270.5C78.4 267.5 76.1 263.5 74.1 258.5C72.1 253.5 70.9 248.7 70.5 244.1C69.9 250.1 68 255 64.8 258.8C65.2 255.8 64.8 252.3 63.6 248.3C62.6 244.5 61.2 241.4 59.4 239C59.8 243.2 59.2 248.2 57.6 254C56 259.8 53.8 264.4 51 267.8C51.8 263.6 51.1 258 48.9 251C46.9 244.2 44.1 235.9 40.5 226.1Z" fill="currentColor"/>
</g>
<mask id="mask1_29_2" style="mask-type:alpha" maskUnits="userSpaceOnUse" x="-126" y="152" width="516" height="173">
<rect x="-126" y="152" width="516" height="173" fill="#D9D9D9"/>
</mask>
<g mask="url(#mask1_29_2)">
<path d="M46.5 202.1C41.9 203.1 36.5 202.8 30.3 201.2C24.1 199.4 19.1 197.1 15.3 194.3C19.9 195.3 25.4 195.1 31.8 193.7C38.2 192.1 43.1 189.7 46.5 186.5C41.9 186.9 36.5 186.3 30.3 184.7C24.1 182.9 19.2 180.5 15.6 177.5C20.2 178.5 25.6 178 31.8 176C38 174 42.9 171.5 46.5 168.5C42.5 165.7 37.1 163.2 30.3 161C23.7 158.6 17.9 158 12.9 159.2C17.9 155.2 24.1 152.3 31.5 150.5C28.1 150.1 24.8 149.5 21.6 148.7C18.2 147.7 15.4 146.4 13.2 144.8C18 145.8 23.7 146 30.3 145.4C37.1 144.8 42.5 143 46.5 140C43.5 140.6 39.8 140.4 35.4 139.4C31.2 138.2 27.9 136.6 25.5 134.6C28.5 135.2 32.1 134.9 36.3 133.7C40.5 132.5 43.9 131 46.5 129.2C45.1 129.4 42.5 129.1 38.7 128.3C34.9 127.5 30.7 126.5 26.1 125.3C21.7 123.9 17.7 122.5 14.1 121.1C10.5 119.7 8.1 118.6 6.9 117.8C8.3 118 10.9 117.8 14.7 117.2C18.5 116.4 22.6 115.4 27 114.2C31.6 112.8 35.7 111.4 39.3 110C42.9 108.6 45.3 107.4 46.5 106.4C43.7 106.6 40.2 105.8 36 104C32 102 29.2 99.8 27.6 97.4C30.4 97.4 33.8 96.5 37.8 94.7C41.8 92.7 44.7 90.6 46.5 88.4C44.3 86 40.9 83.6 36.3 81.2C31.7 78.8 27.7 77.4 24.3 77C26.3 74.4 29.6 72 34.2 69.8C39 67.4 43.1 66.1 46.5 65.9C44.1 64.1 41 63 37.2 62.6C33.4 62.2 30.1 62.3 27.3 62.9C29.7 61.3 32.8 60.2 36.6 59.6C40.4 58.8 43.7 58.9 46.5 59.9C44.3 57.3 40.8 54.8 36 52.4C31.4 49.8 27.4 48.5 24 48.5C26 45.7 29.4 43.2 34.2 41C39 38.8 43.1 37.5 46.5 37.1C44.5 35.1 41.6 33.4 37.8 32C34.2 30.6 31 30.1 28.2 30.5C30.4 28.7 33.3 27.1 36.9 25.7C40.5 24.3 43.7 23.7 46.5 23.9C44.7 22.1 43 19.6 41.4 16.4C40 13 39.3 9.99999 39.3 7.4C40.7 9.59999 42.9 11.7 45.9 13.7C49.1 15.7 52 16.8 54.6 17C56.8 13 58.5 8.09999 59.7 2.29999C61.1 -3.70002 61.2 -8.90001 60 -13.3C62.6 -9.50001 64.5 -4.60001 65.7 1.39998C66.9 7.39999 66.8 12.6 65.4 17C68 13 69.8 7.79999 70.8 1.39998C72 -5.20001 71.8 -10.8 70.2 -15.4C73 -11.4 74.8 -6.20001 75.6 0.199982C76.4 6.59998 76.2 12.2 75 17C78 14.2 80.6 9.89999 82.8 4.09999C85 -1.70001 86 -6.70001 85.8 -10.9C88.2 -8.30002 90.4 -4.70001 92.4 -0.100014C94.6 4.29999 96 8.49999 96.6 12.5C96.8 9.89999 97.4 7.19999 98.4 4.39998C99.4 1.59998 100.6 -0.600014 102 -2.20001C101.4 0.599994 101.6 3.99999 102.6 7.99999C103.8 11.8 105.4 14.8 107.4 17C110.2 17 113.2 16.2 116.4 14.6C119.8 12.8 122.3 10.8 123.9 8.6C123.3 11.2 121.7 13.9 119.1 16.7C116.7 19.5 114.3 21.5 111.9 22.7C114.5 24.5 117.9 26 122.1 27.2C126.3 28.2 130 28.3 133.2 27.5C130.8 29.7 127.4 31.2 123 32C118.8 32.6 115.1 32.7 111.9 32.3C114.1 34.7 117.5 36.6 122.1 38C126.7 39.4 130.6 39.9 133.8 39.5C131.8 41.1 129.2 42.6 126 44C123 45.4 120 46.3 117 46.7C121.2 46.9 125.6 48 130.2 50C135 52 138.7 54.3 141.3 56.9C136.9 56.7 131.6 57.5 125.4 59.3C119.4 61.1 114.9 63.7 111.9 67.1C114.7 69.1 118.3 70.7 122.7 71.9C127.3 73.1 131.3 73.4 134.7 72.8C131.9 75 128.2 76.8 123.6 78.2C119.2 79.4 115.3 79.6 111.9 78.8C115.5 82.4 120.6 85.3 127.2 87.5C134 89.5 139.9 90.4 144.9 90.2C142.5 92.6 139.3 94.7 135.3 96.5C131.5 98.3 127.5 99.7 123.3 100.7C119.1 101.7 115.5 102 112.5 101.6C115.3 102 118.5 103.4 122.1 105.8C125.9 108 128.5 110.2 129.9 112.4C127.3 112.6 124 113.9 120 116.3C116 118.5 113.3 120.8 111.9 123.2C113.7 125.8 116.9 128.3 121.5 130.7C126.1 132.9 130 134.2 133.2 134.6C131.4 137.2 128.2 139.8 123.6 142.4C119 144.8 115.1 146 111.9 146C115.1 145.8 119 146.7 123.6 148.7C128.2 150.7 131.5 153 133.5 155.6C130.3 155.4 126.4 156.4 121.8 158.6C117.4 160.6 114.1 162.7 111.9 164.9C116.1 163.9 121.1 164.3 126.9 166.1C132.9 167.7 137.7 169.7 141.3 172.1C136.9 171.5 131.8 172 126 173.6C120.2 175 115.5 176.9 111.9 179.3C113.9 181.3 116.7 182.8 120.3 183.8C124.1 184.8 127.3 185.1 129.9 184.7C126.7 187.7 122.4 189.5 117 190.1C121 190.5 125.2 191.5 129.6 193.1C134 194.5 137.6 196.3 140.4 198.5C136.2 197.9 131.2 198.5 125.4 200.3C119.8 202.1 115.3 204.3 111.9 206.9C110.9 208.7 110.4 211.4 110.4 215C110.4 218.4 110.8 221 111.6 222.8C109.6 222.8 107 222 103.8 220.4C100.8 218.6 98.8 216.8 97.8 215C94.8 218.6 92.1 223.6 89.7 230C87.3 236.4 86.4 241.9 87 246.5C84.4 243.5 82.1 239.5 80.1 234.5C78.1 229.5 76.9 224.7 76.5 220.1C75.9 226.1 74 231 70.8 234.8C71.2 231.8 70.8 228.3 69.6 224.3C68.6 220.5 67.2 217.4 65.4 215C65.8 219.2 65.2 224.2 63.6 230C62 235.8 59.8 240.4 57 243.8C57.8 239.6 57.1 234 54.9 227C52.9 220.2 50.1 211.9 46.5 202.1Z" fill="currentColor"/>
</g>
</g>
<defs>
<clipPath id="clip0_29_2">
<rect width="145" height="243" fill="currentColor"/>
</clipPath>
</defs>
</svg>
